<svg viewBox="0 0 32 32" xmlns="http://www.w3.org/2000/svg"><g fill="none" fill-rule="evenodd"><path d="M16 2c7.732 0 14 6.268 14 14v10.998A2.998 2.998 0 0 1 27.001 30H16C8.268 30 2 23.732 2 16S8.268 2 16 2z" fill="#FBBC05"/><path d="M23 15.992v6.45c0 .596-.344.736-.764.316l-1.563-1.56C19.434 22.307 23 12.13 23 15.991z" fill="#FFF"/><path d="M30 20.1l-9.05-9.05-9.9 9.9L20.1 30h6.901A2.998 2.998 0 0 0 30 26.998v-6.897z" fill-opacity=".1" fill="#BF360C"/><circle fill="#FFF" cx="16" cy="16" r="7"/></g></svg>