<svg viewBox="0 0 32 32" xmlns="http://www.w3.org/2000/svg"><g fill="none" fill-rule="evenodd"><path d="M11.96 9.54l8.082-4.666 9.29 16.046a4.667 4.667 0 0 1-8.081 4.669L11.958 9.54z" fill="#EA4335"/><path d="M10.709 25.661a4.667 4.667 0 1 1-8.083-4.666l9.333-16.121a4.667 4.667 0 1 1 8.083 4.667l-9.333 16.12z" fill="#FBBC05"/><path d="M6.667 25.661a2.333 2.333 0 1 1 0-4.666 2.333 2.333 0 0 1 0 4.666zm18.666 0a2.333 2.333 0 1 1 0-4.666 2.333 2.333 0 0 1 0 4.666zM16 9.328a2.333 2.333 0 1 1 0-4.666 2.333 2.333 0 0 1 0 4.666z" fill="#FFF" fill-rule="nonzero"/></g></svg>