<svg viewBox="0 0 32 32" xmlns="http://www.w3.org/2000/svg"><g fill="none" fill-rule="evenodd"><circle fill="#4285F4" cx="16" cy="16" r="14"/><path d="M17.22 29.948l-7.584-7.584C6.199 9.75 10.562 5.526 22.727 9.694l7.242 7.241c-.454 6.892-5.896 12.421-12.75 13.013z" fill-opacity=".1" fill="#000" fill-rule="nonzero"/><path d="M16 7a9 9 0 0 0 0 18c.83 0 1.5-.67 1.5-1.5 0-.39-.15-.74-.39-1.01-.23-.26-.38-.61-.38-.99 0-.83.67-1.5 1.5-1.5H20c2.76 0 5-2.24 5-5 0-4.42-4.03-8-9-8zm-5.5 9c-.83 0-1.5-.67-1.5-1.5s.67-1.5 1.5-1.5 1.5.67 1.5 1.5-.67 1.5-1.5 1.5zm3-4c-.83 0-1.5-.67-1.5-1.5S12.67 9 13.5 9s1.5.67 1.5 1.5-.67 1.5-1.5 1.5zm5 0c-.83 0-1.5-.67-1.5-1.5S17.67 9 18.5 9s1.5.67 1.5 1.5-.67 1.5-1.5 1.5zm3 4c-.83 0-1.5-.67-1.5-1.5s.67-1.5 1.5-1.5 1.5.67 1.5 1.5-.67 1.5-1.5 1.5z" fill="#FFF" fill-rule="nonzero"/></g></svg>