<svg viewBox="0 0 32 32" xmlns="http://www.w3.org/2000/svg"><path d="M16 23a7 7 0 0 0 7-7h7c0 7.732-6.268 14-14 14-4.324 0-8.75-7 0-7z" fill="#34A853"/><path d="M26.5 19.5A3.5 3.5 0 0 1 23 16a7 7 0 0 0-7-7V2c7.732 0 14 6.268 14 14a3.5 3.5 0 0 1-3.5 3.5z" fill="#4285F4"/><path d="M16 2a3.5 3.5 0 0 1 0 7 7 7 0 0 0-7 7H2C2 8.268 8.268 2 16 2z" fill="#EA4335"/><path d="M16 23a3.5 3.5 0 0 0 0 7C8.268 30 2 23.732 2 16a3.5 3.5 0 0 1 7 0 7 7 0 0 0 7 7z" fill="#FBBC05"/><path d="M16 7.25a1.75 1.75 0 1 1 0-3.5 1.75 1.75 0 0 1 0 3.5zm10.5 10.5a1.75 1.75 0 1 1 0-3.5 1.75 1.75 0 0 1 0 3.5zM16 28.25a1.75 1.75 0 1 1 0-3.5 1.75 1.75 0 0 1 0 3.5zM5.5 17.75a1.75 1.75 0 1 1 0-3.5 1.75 1.75 0 0 1 0 3.5z" fill="#FFF"/></svg>