<svg viewBox="0 0 32 32" xmlns="http://www.w3.org/2000/svg"><g fill="none" fill-rule="evenodd"><path d="M6 6v15a2 2 0 0 0 2 2h20a2 2 0 0 0 2-2V6a2 2 0 0 0-2-2H8a2 2 0 0 0-2 2z" fill="#616161"/><path fill="#F5F5F5" d="M8 6h20v15H8z"/><path d="M30 14.172V21a2 2 0 0 1-2 2H13.861L25.414 9.586 30 14.172z" fill-opacity=".1" fill="#000" fill-rule="nonzero"/><path d="M2 11v15a2 2 0 0 0 2 2h20a2 2 0 0 0 2-2V11a2 2 0 0 0-2-2H4a2 2 0 0 0-2 2z" fill="#9E9E9E"/><path fill="#F5F5F5" d="M4 11h20v15H4z"/><path d="M21.654 20.002h-7.647l-3.379 5.851H6.787V19.26a8.576 8.576 0 0 1 7.22-3.94 8.583 8.583 0 0 1 7.647 4.682z" fill="#EA4335"/><path d="M10.628 25.853L11 26H5.681a8.601 8.601 0 0 1-.258-2.097c0-1.71.5-3.302 1.362-4.64l3.843 6.59z" fill="#34A853"/><path d="M21.654 20.002a8.547 8.547 0 0 1 .936 3.901c0 .724-.09 1.426-.258 2.097h-5.03l.085-.147-3.38-5.851h7.647z" fill="#FDC626"/><path d="M10.716 26a3.902 3.902 0 1 1 6.582 0h-6.582z" fill="#F1F1F1"/><path d="M11.694 26a3.122 3.122 0 1 1 4.626 0h-4.626z" fill="#4285F4"/></g></svg>