<svg viewBox="0 0 32 32" xmlns="http://www.w3.org/2000/svg"><g fill="none" fill-rule="evenodd"><path d="M27.324 4.674a2.276 2.276 0 0 0-.497-.376c-.036-.02-.073-.037-.109-.056A2.285 2.285 0 0 0 25.696 4h-7.594c-.611 0-1.195.243-1.628.674l-5.62 5.622-.027 1.627 5.478 5.478L27.318 6.35l.006-1.675z" fill="#EA4335"/><path d="M21.729 19.249l-5.403-5.403-7.99 7.99.133 1.693 3.798 3.797a2.303 2.303 0 0 0 3.255 0l6.18-6.18.027-1.897z" fill="#34A853"/><path d="M13.822 13.265l-2.969-2.969-6.18 6.18a2.301 2.301 0 0 0 0 3.254l3.798 3.797 5.063-5.063 2.825-2.752-2.537-2.447z" fill="#FBBC04"/><path d="M27.324 4.674l-7.491 7.492L14 12l-2 5 3.96 3.224 3.336-1.485 2.407 2.407 5.623-5.622A2.303 2.303 0 0 0 28 13.896V6.302a2.301 2.301 0 0 0-.676-1.628z" fill="#4285F4"/><path d="M24.401 9.718a1.5 1.5 0 1 1-2.121-2.12 1.5 1.5 0 0 1 2.121 2.12zm-7.897 5.193h4.68c.06.334.095.683.095 1.046 0 2.84-1.904 4.86-4.776 4.86a4.973 4.973 0 1 1 0-9.947c1.342 0 2.466.492 3.328 1.296l-1.4 1.402-.002-.003c-.523-.5-1.186-.753-1.925-.753-1.642 0-2.973 1.387-2.973 3.031 0 1.644 1.331 3.031 2.973 3.031 1.49 0 2.504-.854 2.711-2.022h-2.71v-1.94z" fill="#FFF"/></g></svg>