<svg viewBox="0 0 32 32" xmlns="http://www.w3.org/2000/svg"><g fill="none"><path fill="#E55B2D" d="M18 19.461v4.616L14 31l-4-2.308V12.21l-4 4.943-4-2.307V10.23l16-6.923 10 4.615-2 6.923-12-6.923z"/><path fill="#ED8E24" d="M18.001 3.308L18 17.154h4v4.615l-4 2.308v4.615L14 31v-9.23l4 2.307.001-6.923H14v-4.616l-8 4.616V10.23l12.001-6.923L30 7.923v4.615l-4 2.308V7.923z"/><path d="M18 1l12 6.923-4 2.308-8-4.616-12 6.923-4-2.307L18 1zm-4 16.154l4-2.308 4 2.309-4 2.307-4-2.308z" fill="#F8BF3C"/></g></svg>