<svg viewBox="0 0 72 72" xmlns="http://www.w3.org/2000/svg" xmlns:xlink="http://www.w3.org/1999/xlink"><defs><path d="M0 7.998C0 3.58 3.583 0 8.01 0H49v72H8.01C3.585 72 0 68.417 0 64.002V7.998z" id="a"/><path d="M48 0h16.008C68.422 0 72 3.583 72 7.998v56.004C72 68.42 68.42 72 64.008 72H48V0z" id="b"/></defs><g fill="none" fill-rule="evenodd"><use fill="#FFF" xlink:href="#a"/><path stroke="#DDD" d="M48.5.5v71H8.01C3.862 71.5.5 68.142.5 64.002V7.998C.5 3.856 3.86.5 8.01.5H48.5z"/><use fill="#F5F5F5" xlink:href="#b"/><path stroke="#DDD" d="M48.5.5h15.508C68.145.5 71.5 3.858 71.5 7.998v56.004c0 4.14-3.356 7.498-7.492 7.498H48.5V.5z"/></g></svg>