<svg viewBox="0 0 48 48" xmlns="http://www.w3.org/2000/svg"><g fill="none" fill-rule="evenodd"><path d="M17.65 15l12.7-7.331 14.6 25.214a7.333 7.333 0 0 1-12.7 7.336l-14.6-25.218z" fill="#EA4335"/><path d="M15.685 40.334A7.333 7.333 0 0 1 2.984 33L17.65 7.668A7.333 7.333 0 1 1 30.35 15L15.685 40.334z" fill="#FBBC05"/><path d="M9.334 40.334a3.667 3.667 0 1 1 0-7.334 3.667 3.667 0 0 1 0 7.334zm29.333 0a3.667 3.667 0 1 1 0-7.334 3.667 3.667 0 0 1 0 7.334zM24 14.668a3.667 3.667 0 1 1 0-7.334 3.667 3.667 0 0 1 0 7.334z" fill="#FFF" fill-rule="nonzero"/></g></svg>