<svg viewBox="0 0 48 48" xmlns="http://www.w3.org/2000/svg"><g fill="none" fill-rule="evenodd"><path d="M23 44l-4-28h20.009A1.99 1.99 0 0 1 41 17.991V42.01A1.997 1.997 0 0 1 39.009 44H23z" fill="#EA4335"/><path fill="#AD1457" d="M23 44V16h-4v28z"/><path d="M13 32l4-28h16.009A1.99 1.99 0 0 1 35 5.991V30.01A1.997 1.997 0 0 1 33.009 32H13z" fill="#FBBC05"/><path fill="#FF9800" d="M17 32V4h-4v28z"/><path d="M11 38L9 24l2-14h10l2 1 2-1h2.009A1.99 1.99 0 0 1 29 11.991V36.01A1.997 1.997 0 0 1 27.009 38H11z" fill="#4285F4"/><path fill="#3367D6" d="M11 38V10H7v28z"/><path d="M21 10h4v8l-2-1-2 1v-8zm-1 20a3.001 3.001 0 0 0 2.83-2H20v-2h4.9a5 5 0 1 1-1.9-3l-1.438 1.438A3 3 0 1 0 20 30z" fill="#FFF"/></g></svg>