<svg viewBox="0 0 48 48" xmlns="http://www.w3.org/2000/svg"><g fill="none" fill-rule="evenodd"><circle fill="#4285F4" cx="24" cy="24" r="22"/><path d="M14.1 33.9c-6.394-18.748.394-25.318 20.365-19.71l11.473 11.473C45.14 36.34 36.72 44.894 26.102 45.9L14.1 33.899z" fill-opacity=".1" fill="#000" fill-rule="nonzero"/><path d="M24 10c-7.731 0-14 6.269-14 14s6.269 14 14 14a2.33 2.33 0 0 0 2.333-2.333c0-.607-.233-1.151-.606-1.571a2.337 2.337 0 0 1-.591-1.54 2.33 2.33 0 0 1 2.333-2.334h2.753A7.78 7.78 0 0 0 38 22.444C38 15.57 31.731 10 24 10zm-8.556 14a2.33 2.33 0 0 1-2.333-2.333 2.33 2.33 0 0 1 2.333-2.334 2.33 2.33 0 0 1 2.334 2.334A2.33 2.33 0 0 1 15.444 24zm4.667-6.222a2.33 2.33 0 0 1-2.333-2.334 2.33 2.33 0 0 1 2.333-2.333 2.33 2.33 0 0 1 2.333 2.333 2.33 2.33 0 0 1-2.333 2.334zm7.778 0a2.33 2.33 0 0 1-2.333-2.334 2.33 2.33 0 0 1 2.333-2.333 2.33 2.33 0 0 1 2.333 2.333 2.33 2.33 0 0 1-2.333 2.334zM32.556 24a2.33 2.33 0 0 1-2.334-2.333 2.33 2.33 0 0 1 2.334-2.334 2.33 2.33 0 0 1 2.333 2.334A2.33 2.33 0 0 1 32.556 24z" fill="#FFF" fill-rule="nonzero"/></g></svg>