<svg viewBox="0 0 48 48" xmlns="http://www.w3.org/2000/svg"><path d="M24 35c6.075 0 11-4.925 11-11h11c0 12.15-9.85 22-22 22-6.794 0-13.75-11 0-11z" fill="#34A853"/><path d="M40.5 29.5A5.5 5.5 0 0 1 35 24c0-6.075-4.925-11-11-11V2c12.15 0 22 9.85 22 22a5.5 5.5 0 0 1-5.5 5.5z" fill="#4285F4"/><path d="M24 2a5.5 5.5 0 0 1 0 11c-6.075 0-11 4.925-11 11H2C2 11.85 11.85 2 24 2z" fill="#EA4335"/><path d="M24 35a5.5 5.5 0 0 0 0 11C11.85 46 2 36.15 2 24a5.5 5.5 0 0 1 11 0c0 6.075 4.925 11 11 11z" fill="#FBBC05"/><path d="M24 10.25a2.75 2.75 0 1 1 0-5.5 2.75 2.75 0 0 1 0 5.5zm16.5 16.5a2.75 2.75 0 1 1 0-5.5 2.75 2.75 0 0 1 0 5.5zM24 43.25a2.75 2.75 0 1 1 0-5.5 2.75 2.75 0 0 1 0 5.5zM7.5 26.75a2.75 2.75 0 1 1 0-5.5 2.75 2.75 0 0 1 0 5.5z" fill="#FFF"/></svg>