<svg viewBox="0 0 48 48" xmlns="http://www.w3.org/2000/svg"><g fill="none" fill-rule="evenodd"><path d="M43 5H11a3 3 0 0 0-3 3v26h35a3 3 0 0 0 3-3V8a3 3 0 0 0-3-3z" fill="#616161"/><path fill="#F5F5F5" d="M11 8h32v23H11z"/><path d="M39.125 14.875L40 33.998h3a3 3 0 0 0 3-3V21.75l-6.875-6.875z" fill-opacity=".1" fill="#000"/><path d="M37 14H5a3 3 0 0 0-3 3v23a3 3 0 0 0 3 3h32a3 3 0 0 0 3-3V17a3 3 0 0 0-3-3z" fill="#9E9E9E"/><path fill="#F5F5F5" d="M5 17h32v23H5z"/><path d="M32.471 31.023H21L15.932 39.8H10.17v-9.89A12.865 12.865 0 0 1 21 24c5.003 0 9.34 2.854 11.471 7.023z" fill="#EA4335"/><path d="M15.932 39.8l1.138.2H8.507c-.25-1-.382-2.047-.382-3.125 0-2.565.75-4.954 2.042-6.96l5.765 9.885z" fill="#34A853"/><path d="M32.471 31.023a12.82 12.82 0 0 1 1.404 5.852c0 1.078-.132 2.125-.382 3.125h-7.537l.114-.2L21 31.023h11.471z" fill="#FDC626"/><path d="M16.05 40a5.852 5.852 0 1 1 9.898 0h-9.897z" fill="#F1F1F1"/><path d="M17.513 40a4.683 4.683 0 1 1 6.974 0h-6.974z" fill="#4285F4"/></g></svg>