<svg viewBox="0 0 48 48" xmlns="http://www.w3.org/2000/svg"><g fill="none" fill-rule="evenodd"><path d="M42.121 5.879A2.99 2.99 0 0 1 43 8v13a2.99 2.99 0 0 1-.879 2.121l-9.5 9.5L6 27 42.121 5.879z" fill="#4285F4" fill-rule="nonzero"/><path d="M15.379 15.379L20 19.5V29l-7.621 6.621-6.5-6.5a3 3 0 0 1 0-4.242l9.5-9.5z" fill="#FBBC05" fill-rule="nonzero"/><path d="M19.5 28.5l10.3 1.3 2.821 2.821-9.5 9.5a3 3 0 0 1-4.242 0l-6.5-6.5L19.5 28.5z" fill="#34A853" fill-rule="nonzero"/><path d="M24.879 5.879A2.99 2.99 0 0 1 27 5h13a2.99 2.99 0 0 1 2.121.879L29.5 18.499 20 20l-4.621-4.621 9.5-9.5z" fill="#EA4335" fill-rule="nonzero"/><path d="M25 29a4.502 4.502 0 0 0 4.244-3H25v-3h7.35a7.5 7.5 0 1 1-2.85-4.5l-2.157 2.157A4.5 4.5 0 1 0 25 29zm10.5-14a2.5 2.5 0 1 1 0-5 2.5 2.5 0 0 1 0 5z" fill="#FFF"/></g></svg>