<svg viewBox="0 0 48 48" xmlns="http://www.w3.org/2000/svg"><g fill="none"><path fill="#E55B2D" d="M27 29.192v6.923L21 46.5l-6.001-3.462V18.315L9 25.73l-6-3.461v-6.923L27 4.962l15 6.922-3 10.385-18-10.385z"/><path fill="#ED8E24" d="M27.002 4.962l-.003 20.769H33v6.923l-6 3.461v6.923L20.998 46.5V32.654L27 36.115l.002-10.384h-6.003v-6.923L9 25.73V15.346L27.002 4.962 45 11.885v6.923l-6 3.461V11.884z"/><path d="M27 1.5l18 10.384-6 3.462-12-6.923L9 18.808l-6-3.462L27 1.5zm-6 24.23l6-3.46 6 3.462-6 3.46-6-3.462z" fill="#F8BF3C"/></g></svg>